<?xml version="1.0" encoding="utf-8"?>
<!-- Generator: Adobe Illustrator 16.0.0, SVG Export Plug-In . SVG Version: 6.00 Build 0)  -->
<!DOCTYPE svg PUBLIC "-//W3C//DTD SVG 1.1//EN" "http://www.w3.org/Graphics/SVG/1.1/DTD/svg11.dtd">
<svg version="1.1" id="Layer_1" xmlns="http://www.w3.org/2000/svg" xmlns:xlink="http://www.w3.org/1999/xlink" x="0px" y="0px"
	 width="826.865px" height="313.433px" viewBox="0 0 826.865 313.433" enable-background="new 0 0 826.865 313.433"
	 xml:space="preserve">
<path stroke="#000000" stroke-miterlimit="10" d="M153.319,290.17c-70.94,0-128.449-57.57-128.449-128.586
	S82.378,32.998,153.319,32.998c47.991,0,89.827,26.35,111.878,65.382c1.744-0.916,3.617-1.899,5.668-2.976
	C248.055,54.647,204.683,26.23,153.46,26.23c-74.78,0-135.351,61.317-135.351,135.351c0,74.781,60.57,135.356,135.351,135.356
	c52.721,0,96.846-29.166,119.65-72.166c-2.311-1.047-4.396-2.004-6.318-2.895C245.206,262.504,202.493,290.17,153.319,290.17z"/>
<g>
	<path stroke="#000000" stroke-miterlimit="10" d="M409.901,32.998c-0.181,0-0.36,0.009-0.542,0.01
		c47.763,0.197,89.368,26.487,111.337,65.372c0.273-0.144,0.557-0.292,0.837-0.439C499.417,59.149,457.711,32.998,409.901,32.998z"
		/>
	<path stroke="#000000" stroke-miterlimit="10" d="M409.359,290.16c0.182,0.001,0.361,0.01,0.542,0.01
		c49.011,0,91.606-27.482,113.26-67.891c-0.291-0.135-0.586-0.271-0.87-0.402C500.784,262.354,458.305,289.957,409.359,290.16z"/>
	<path stroke="#000000" stroke-miterlimit="10" d="M528.609,224.771c-1.97-0.893-3.768-1.716-5.448-2.492
		c-21.653,40.408-64.249,67.891-113.26,67.891c-0.181,0-0.36-0.009-0.542-0.01c-0.181,0.001-0.36,0.01-0.542,0.01
		c-49.012,0-91.607-27.482-113.26-67.891c-1.68,0.776-3.478,1.6-5.448,2.492c22.747,42.891,66.707,72.012,119.25,72.159
		C461.902,296.783,505.862,267.662,528.609,224.771z"/>
	<path stroke="#000000" stroke-miterlimit="10" d="M292.354,95.404c1.729,0.907,3.326,1.745,4.832,2.536
		c22.116-38.791,63.822-64.942,111.632-64.942c0.181,0,0.361,0.009,0.542,0.01c0.182-0.001,0.361-0.01,0.542-0.01
		c47.81,0,89.516,26.151,111.632,64.942c1.506-0.791,3.103-1.629,4.832-2.536c-22.751-40.65-65.958-69.019-117.006-69.167
		C358.312,26.386,315.104,54.754,292.354,95.404z"/>
</g>
<path stroke="#000000" stroke-miterlimit="10" d="M666.204,290.17c70.939,0,128.449-57.57,128.449-128.586
	S737.144,32.998,666.204,32.998c-47.991,0-89.827,26.35-111.879,65.382c-1.744-0.916-3.617-1.899-5.669-2.976
	C571.467,54.647,614.84,26.23,666.062,26.23c74.78,0,135.351,61.317,135.351,135.351c0,74.781-60.57,135.356-135.351,135.356
	c-52.721,0-96.846-29.166-119.65-72.166c2.312-1.047,4.396-2.004,6.318-2.895C574.316,262.504,617.029,290.17,666.204,290.17z"/>
<rect x="30.392" y="137.841" fill="none" width="236.667" height="18"/>
<text transform="matrix(0.7 0 0 0.7 63.8799 147.9058)" font-family="'Helvetica'" font-size="14" letter-spacing="4.286">send</text>
<text transform="matrix(1 0 0 1 106.0034 147.9058)" font-family="'Helvetica'" font-size="14" letter-spacing="5"> </text>
<text transform="matrix(0.7 0 0 0.7 115.2129 147.9058)" font-family="'Helvetica'" font-size="14" letter-spacing="4.286">us</text>
<text transform="matrix(1 0 0 1 136.2749 147.9058)" font-family="'Helvetica'" font-size="14" letter-spacing="5"> </text>
<text transform="matrix(0.7 0 0 0.7 145.4844 147.9058)" font-family="'Helvetica'" font-size="14" letter-spacing="4.286">the</text>
<text transform="matrix(1 0 0 1 176.2563 147.9058)" font-family="'Helvetica'" font-size="14" letter-spacing="5"> </text>
<text transform="matrix(0.7 0 0 0.7 185.4658 147.9058)" font-family="'Helvetica'" font-size="14" letter-spacing="4.286">offer</text>
<rect x="29.392" y="173.841" fill="none" width="236.667" height="18"/>
<text transform="matrix(0.7 0 0 0.7 51.3999 183.9062)" font-family="'Helvetica'" font-size="14" letter-spacing="4.286">project</text>
<text transform="matrix(1 0 0 1 123.2041 183.9062)" font-family="'Helvetica'" font-size="14" letter-spacing="5">’</text>
<text transform="matrix(0.7 0 0 0.7 131.6343 183.9062)" font-family="'Helvetica'" font-size="14" letter-spacing="4.286">s</text>
<text transform="matrix(1 0 0 1 141.895 183.9062)" font-family="'Helvetica'" font-size="14" letter-spacing="5"> </text>
<text transform="matrix(0.7 0 0 0.7 151.1045 183.9062)" font-family="'Helvetica'" font-size="14" letter-spacing="4.286">documents</text>
<rect x="28.203" y="154.819" fill="none" width="236.667" height="18"/>
<text transform="matrix(0.7 0 0 0.7 36.8623 164.8848)" font-family="'Helvetica'" font-size="14" letter-spacing="4.286">you</text>
<text transform="matrix(1 0 0 1 69.2705 164.8848)" font-family="'Helvetica'" font-size="14" letter-spacing="5"> </text>
<text transform="matrix(0.7 0 0 0.7 78.48 164.8848)" font-family="'Helvetica'" font-size="14" letter-spacing="4.286">received</text>
<text transform="matrix(1 0 0 1 158.3726 164.8848)" font-family="'Helvetica'" font-size="14" letter-spacing="5"> </text>
<text transform="matrix(0.7 0 0 0.7 167.582 164.8848)" font-family="'Helvetica'" font-size="14" letter-spacing="4.286">with</text>
<text transform="matrix(1 0 0 1 207.5137 164.8848)" font-family="'Helvetica'" font-size="14" letter-spacing="5"> </text>
<text transform="matrix(0.7 0 0 0.7 216.7231 164.8848)" font-family="'Helvetica'" font-size="14" letter-spacing="4.286">your</text>
<rect x="292.573" y="138.96" fill="none" width="236.667" height="18"/>
<text transform="matrix(0.7 0 0 0.7 307.1787 149.0249)" font-family="'Helvetica'" font-size="14" letter-spacing="4.286">we</text>
<text transform="matrix(1 0 0 1 330.4131 149.0249)" font-family="'Helvetica'" font-size="14" letter-spacing="5"> </text>
<text transform="matrix(0.7 0 0 0.7 339.6226 149.0249)" font-family="'Helvetica'" font-size="14" letter-spacing="4.286">perform</text>
<text transform="matrix(1 0 0 1 414.6904 149.0249)" font-family="'Helvetica'" font-size="14" letter-spacing="5"> </text>
<text transform="matrix(0.7 0 0 0.7 423.8994 149.0249)" font-family="'Helvetica'" font-size="14" letter-spacing="4.286">a</text>
<text transform="matrix(1 0 0 1 434.1611 149.0249)" font-family="'Helvetica'" font-size="14" letter-spacing="5"> </text>
<text transform="matrix(0.7 0 0 0.7 443.3701 149.0249)" font-family="'Helvetica'" font-size="14" letter-spacing="4.286">specific</text>
<rect x="292.573" y="156.96" fill="none" width="236.667" height="18"/>
<text transform="matrix(0.7 0 0 0.7 293.9805 167.0254)" font-family="'Helvetica'" font-size="14" letter-spacing="4.286">and</text>
<text transform="matrix(1 0 0 1 325.8433 167.0254)" font-family="'Helvetica'" font-size="14" letter-spacing="5"> </text>
<text transform="matrix(0.7 0 0 0.7 335.0527 167.0254)" font-family="'Helvetica'" font-size="14" letter-spacing="4.286">detailed</text>
<text transform="matrix(1 0 0 1 412.7681 167.0254)" font-family="'Helvetica'" font-size="14" letter-spacing="5"> </text>
<text transform="matrix(0.7 0 0 0.7 421.9775 167.0254)" font-family="'Helvetica'" font-size="14" letter-spacing="4.286">calculation</text>
<rect x="292.573" y="174.96" fill="none" width="236.667" height="18"/>
<text transform="matrix(0.7 0 0 0.7 347.916 185.0254)" font-family="'Helvetica'" font-size="14" letter-spacing="4.286">room</text>
<text transform="matrix(1 0 0 1 393.2979 185.0254)" font-family="'Helvetica'" font-size="14" letter-spacing="5"> </text>
<text transform="matrix(0.7 0 0 0.7 402.5073 185.0254)" font-family="'Helvetica'" font-size="14" letter-spacing="4.286">by</text>
<text transform="matrix(1 0 0 1 423.0283 185.0254)" font-family="'Helvetica'" font-size="14" letter-spacing="5"> </text>
<text transform="matrix(0.7 0 0 0.7 432.2383 185.0254)" font-family="'Helvetica'" font-size="14" letter-spacing="4.286">room</text>
<rect x="549.349" y="137.679" fill="none" width="236.668" height="18"/>
<text transform="matrix(0.7 0 0 0.7 596.6865 147.7437)" font-family="'Helvetica'" font-size="14" letter-spacing="4.286">it</text>
<text transform="matrix(1 0 0 1 612.8438 147.7437)" font-family="'Helvetica'" font-size="14" letter-spacing="5">’</text>
<text transform="matrix(0.7 0 0 0.7 621.2744 147.7437)" font-family="'Helvetica'" font-size="14" letter-spacing="4.286">s</text>
<text transform="matrix(1 0 0 1 631.5342 147.7437)" font-family="'Helvetica'" font-size="14" letter-spacing="5"> </text>
<text transform="matrix(0.7 0 0 0.7 640.7441 147.7437)" font-family="'Helvetica'" font-size="14" letter-spacing="4.286">oversized</text>
<text transform="matrix(1 0 0 1 730.8926 147.7437)" font-family="'Helvetica'" font-size="14" letter-spacing="5">?</text>
<rect x="522.171" y="155.679" fill="none" width="292.846" height="18"/>
<text transform="matrix(0.7 0 0 0.7 536.7979 165.7441)" font-family="'Helvetica'" font-size="14" letter-spacing="4.286">we</text>
<text transform="matrix(1 0 0 1 560.0322 165.7441)" font-family="'Helvetica'" font-size="14" letter-spacing="5"> </text>
<text transform="matrix(0.7 0 0 0.7 569.2412 165.7441)" font-family="'Helvetica'" font-size="14" letter-spacing="4.286">deliver</text>
<text transform="matrix(1 0 0 1 637.2471 165.7441)" font-family="'Helvetica'" font-size="14" letter-spacing="5"> </text>
<text transform="matrix(0.7 0 0 0.7 646.4561 165.7441)" font-family="'Helvetica'" font-size="14" letter-spacing="4.286">all</text>
<text transform="matrix(1 0 0 1 675.0654 165.7441)" font-family="'Helvetica'" font-size="14" letter-spacing="5"> </text>
<text transform="matrix(0.7 0 0 0.7 684.2744 165.7441)" font-family="'Helvetica'" font-size="14" letter-spacing="4.286">calculations</text>
<rect x="548.349" y="173.679" fill="none" width="236.668" height="18"/>
<text transform="matrix(0.7 0 0 0.7 561.8711 183.7441)" font-family="'Helvetica'" font-size="14" letter-spacing="4.286">with</text>
<text transform="matrix(1 0 0 1 601.8027 183.7441)" font-family="'Helvetica'" font-size="14" letter-spacing="5"> </text>
<text transform="matrix(0.7 0 0 0.7 611.0127 183.7441)" font-family="'Helvetica'" font-size="14" letter-spacing="4.286">an</text>
<text transform="matrix(1 0 0 1 632.0742 183.7441)" font-family="'Helvetica'" font-size="14" letter-spacing="5"> </text>
<text transform="matrix(0.7 0 0 0.7 641.2842 183.7441)" font-family="'Helvetica'" font-size="14" letter-spacing="4.286">updated</text>
<text transform="matrix(1 0 0 1 714.1787 183.7441)" font-family="'Helvetica'" font-size="14" letter-spacing="5"> </text>
<text transform="matrix(0.7 0 0 0.7 723.3887 183.7441)" font-family="'Helvetica'" font-size="14" letter-spacing="4.286">offer</text>
<rect x="147.378" y="49.679" fill="none" width="33" height="37"/>
<text transform="matrix(1 0 0 1 147.3784 69.8105)" font-family="'Helvetica'" font-size="28">1</text>
<rect x="402.878" y="49.679" fill="none" width="33" height="37"/>
<text transform="matrix(1 0 0 1 402.8784 69.8105)" font-family="'Helvetica'" font-size="28">2</text>
<rect x="660.296" y="49.679" fill="none" width="33" height="37"/>
<text transform="matrix(1 0 0 1 660.2939 69.8105)" font-family="'Helvetica'" font-size="28">3</text>
</svg>
