<?xml version="1.0" encoding="utf-8"?>
<!-- Generator: Adobe Illustrator 16.0.0, SVG Export Plug-In . SVG Version: 6.00 Build 0)  -->
<!DOCTYPE svg PUBLIC "-//W3C//DTD SVG 1.1//EN" "http://www.w3.org/Graphics/SVG/1.1/DTD/svg11.dtd">
<svg version="1.1" id="Layer_1" xmlns="http://www.w3.org/2000/svg" xmlns:xlink="http://www.w3.org/1999/xlink" x="0px" y="0px"
	 width="346.5px" height="146px" viewBox="0 0 346.5 146" enable-background="new 0 0 346.5 146" xml:space="preserve">
<rect x="-0.25" y="-0.459" width="346.75" height="146.459"/>
<g>
	<polygon fill="none" points="167.576,62.412 162.329,49.929 167.557,62.412 	"/>
	<path fill="#FFFFFF" d="M74.578,76.649c-7.254,0-13.144-5.89-13.144-13.144c0-7.191,5.89-13.143,13.144-13.143
		c4.773,0,8.989,2.604,11.159,6.385c4.216-2.045,4.526-2.231,8.308-4.215c-3.782-6.758-10.974-11.47-19.467-11.47
		c-12.399,0-22.443,10.167-22.443,22.442c0,12.399,10.043,22.443,22.443,22.443c8.741,0,16.057-4.836,19.839-11.966
		c-3.968-1.798-4.092-2.046-8.308-4.216C83.877,73.983,79.537,76.649,74.578,76.649z"/>
	<path fill="#FFFFFF" d="M128.269,69.086c0,6.633-2.232,9.609-9.176,9.609c-7.874,0-9.113-4.773-9.113-9.609V41.559h-9.733v27.527
		c0,12.089,6.881,17.793,18.847,17.793c11.841,0,18.909-5.828,18.909-17.793V41.559h-9.733V69.086z"/>
	<rect x="233.171" y="41.559" fill="#FFFFFF" width="9.733" height="44.266"/>
	<g>
		<defs>
			<path id="SVGID_1_" d="M271.176,40.567c-12.647,0-22.877,10.229-22.877,22.938c0,12.647,10.229,22.877,22.877,22.877
				c12.585,0,22.938-10.229,22.938-22.877C294.115,50.797,283.762,40.567,271.176,40.567z M271.176,77.021
				c-7.377,0-13.515-6.138-13.515-13.516c0-7.377,6.138-13.577,13.515-13.577s13.391,6.2,13.391,13.577
				C284.567,70.884,278.554,77.021,271.176,77.021z"/>
		</defs>
		<use xlink:href="#SVGID_1_"  overflow="visible" fill="#FFFFFF"/>
		<clipPath id="SVGID_2_">
			<use xlink:href="#SVGID_1_"  overflow="visible"/>
		</clipPath>
		<path clip-path="url(#SVGID_2_)" fill="#FFFFFF" d="M271.176,49.929c-7.377,0-13.515,6.2-13.515,13.577
			c0,7.378,6.138,13.516,13.515,13.516s13.391-6.138,13.391-13.516C284.567,56.129,278.554,49.929,271.176,49.929z"/>
	</g>
	<path fill="#FFFFFF" d="M216.269,69.457c7.378-1.611,10.54-7.688,10.54-13.701c0-7.191-4.278-14.197-15.437-14.197h-19.963v20.854
		H191.4v7.547h0.008v15.928h9.795V69.959h0.04v-7.547h-0.04V49.123h7.563c4.65,0,8.494,0.867,8.494,6.633
		c0,5.07-3.106,6.432-7.109,6.656h-7.126v7.547h2.956l11.156,15.928h11.903l-12.399-16.43H216.269z"/>
	<polygon fill="#FFFFFF" points="169.329,46.735 167.041,41.621 157.246,41.621 137.159,85.824 146.024,85.824 153.459,69.959 
		153.48,69.959 156.869,62.412 156.839,62.412 162.267,49.929 162.329,49.929 167.576,62.412 167.557,62.412 170.717,69.959 
		170.745,69.959 177.395,85.824 186.818,85.824 179.72,69.959 179.728,69.959 169.316,46.773 	"/>
	<polygon fill="#FFFFFF" points="178.29,62.412 181.68,69.959 189.618,69.959 189.618,62.412 	"/>
	<polygon fill="#FFFFFF" points="158.823,62.412 155.435,69.959 168.787,69.959 165.627,62.412 	"/>
</g>
<g>
	<path fill="#FFFFFF" d="M108.023,98.221c0.382,0.368,0.594,0.787,0.636,1.255h-0.729c-0.081-0.355-0.243-0.638-0.485-0.846
		c-0.243-0.208-0.583-0.312-1.021-0.312c-0.534,0-0.966,0.191-1.294,0.574s-0.493,0.969-0.493,1.759
		c0,0.647,0.148,1.172,0.445,1.575c0.297,0.403,0.739,0.604,1.328,0.604c0.542,0,0.955-0.212,1.237-0.635
		c0.15-0.223,0.262-0.517,0.336-0.88h0.729c-0.064,0.582-0.278,1.069-0.64,1.462c-0.434,0.474-1.018,0.71-1.754,0.71
		c-0.634,0-1.167-0.194-1.598-0.583c-0.567-0.514-0.851-1.308-0.851-2.381c0-0.815,0.213-1.484,0.639-2.005
		c0.461-0.567,1.096-0.85,1.906-0.85C107.106,97.668,107.642,97.852,108.023,98.221z"/>
	<path fill="#FFFFFF" d="M117.153,98.608c0.366,0.489,0.549,1.114,0.549,1.876c0,0.825-0.209,1.51-0.628,2.057
		c-0.491,0.642-1.191,0.962-2.102,0.962c-0.85,0-1.518-0.281-2.004-0.842c-0.434-0.541-0.65-1.226-0.65-2.053
		c0-0.747,0.186-1.386,0.557-1.917c0.476-0.682,1.18-1.022,2.113-1.022C115.962,97.668,116.684,97.981,117.153,98.608z
		 M116.493,102.128c0.294-0.473,0.442-1.017,0.442-1.631c0-0.65-0.17-1.173-0.51-1.569c-0.339-0.396-0.804-0.594-1.393-0.594
		c-0.571,0-1.038,0.196-1.398,0.589s-0.542,0.971-0.542,1.736c0,0.612,0.155,1.128,0.464,1.548c0.31,0.42,0.812,0.63,1.506,0.63
		C115.722,102.837,116.199,102.601,116.493,102.128z"/>
	<path fill="#FFFFFF" d="M126.068,98.608c0.366,0.489,0.549,1.114,0.549,1.876c0,0.825-0.209,1.51-0.628,2.057
		c-0.491,0.642-1.191,0.962-2.102,0.962c-0.85,0-1.518-0.281-2.004-0.842c-0.434-0.541-0.65-1.226-0.65-2.053
		c0-0.747,0.186-1.386,0.557-1.917c0.476-0.682,1.18-1.022,2.113-1.022C124.878,97.668,125.6,97.981,126.068,98.608z
		 M125.409,102.128c0.294-0.473,0.442-1.017,0.442-1.631c0-0.65-0.17-1.173-0.51-1.569c-0.339-0.396-0.804-0.594-1.393-0.594
		c-0.571,0-1.038,0.196-1.398,0.589s-0.542,0.971-0.542,1.736c0,0.612,0.155,1.128,0.464,1.548c0.31,0.42,0.812,0.63,1.506,0.63
		C124.637,102.837,125.114,102.601,125.409,102.128z"/>
	<path fill="#FFFFFF" d="M130.434,97.818h0.749v4.865h2.771v0.658h-3.519V97.818z"/>
	<path fill="#FFFFFF" d="M137.812,97.818h0.755v5.523h-0.755V97.818z"/>
	<path fill="#FFFFFF" d="M142.708,97.818h0.881l2.754,4.462v-4.462h0.714v5.523h-0.84l-2.795-4.457v4.457h-0.714V97.818z"/>
	<path fill="#FFFFFF" d="M154.871,97.976c0.541,0.288,0.872,0.793,0.993,1.515h-0.741c-0.088-0.403-0.271-0.697-0.549-0.881
		c-0.277-0.185-0.627-0.276-1.049-0.276c-0.5,0-0.922,0.191-1.265,0.575c-0.342,0.383-0.514,0.955-0.514,1.714
		c0,0.657,0.141,1.191,0.424,1.604c0.282,0.412,0.743,0.619,1.382,0.619c0.489,0,0.893-0.145,1.214-0.435
		c0.32-0.29,0.485-0.757,0.492-1.404h-1.729v-0.62h2.425v2.955h-0.481l-0.181-0.71c-0.249,0.278-0.47,0.471-0.662,0.579
		c-0.323,0.186-0.733,0.278-1.231,0.278c-0.644,0-1.197-0.211-1.661-0.635c-0.505-0.531-0.758-1.261-0.758-2.188
		c0-0.925,0.247-1.661,0.741-2.207c0.469-0.521,1.077-0.782,1.823-0.782C154.056,97.675,154.498,97.775,154.871,97.976z"/>
	<path fill="#FFFFFF" d="M167.515,97.818h0.755v5.523h-0.755V97.818z"/>
	<path fill="#FFFFFF" d="M172.411,97.818h0.881l2.754,4.462v-4.462h0.714v5.523h-0.84l-2.795-4.457v4.457h-0.714V97.818z"/>
	<path fill="#FFFFFF" d="M181.335,97.818l1.587,4.703l1.568-4.703h0.838l-2.016,5.523h-0.793l-2.012-5.523H181.335z"/>
	<path fill="#FFFFFF" d="M189.031,97.818h4.008v0.677h-3.279v1.677h3.031v0.639h-3.031v1.872h3.335v0.658h-4.064V97.818z"/>
	<path fill="#FFFFFF" d="M197.51,101.559c0.017,0.313,0.088,0.568,0.214,0.763c0.239,0.366,0.66,0.549,1.264,0.549
		c0.271,0,0.517-0.041,0.739-0.121c0.43-0.155,0.645-0.434,0.645-0.834c0-0.301-0.091-0.515-0.273-0.643
		c-0.185-0.125-0.473-0.234-0.867-0.327l-0.725-0.169c-0.474-0.11-0.809-0.232-1.005-0.365c-0.34-0.231-0.51-0.575-0.51-1.034
		c0-0.496,0.167-0.903,0.501-1.222s0.808-0.478,1.419-0.478c0.563,0,1.042,0.14,1.436,0.419c0.394,0.28,0.591,0.727,0.591,1.34
		h-0.703c-0.036-0.295-0.113-0.522-0.231-0.68c-0.219-0.289-0.59-0.433-1.114-0.433c-0.423,0-0.727,0.093-0.912,0.278
		s-0.277,0.401-0.277,0.646c0,0.271,0.109,0.469,0.328,0.594c0.144,0.08,0.468,0.181,0.973,0.301l0.75,0.177
		c0.362,0.085,0.641,0.202,0.838,0.35c0.34,0.258,0.51,0.633,0.51,1.124c0,0.612-0.217,1.049-0.651,1.312
		c-0.434,0.263-0.938,0.395-1.513,0.395c-0.67,0-1.194-0.175-1.573-0.526c-0.379-0.348-0.565-0.821-0.558-1.417H197.51z"/>
	<path fill="#FFFFFF" d="M209.098,97.818v0.658h-1.861v4.865h-0.755v-4.865h-1.861v-0.658H209.098z"/>
	<path fill="#FFFFFF" d="M212.694,97.818h1.072l1.588,4.669l1.577-4.669h1.064v5.523h-0.714v-3.26c0-0.113,0.002-0.299,0.007-0.56
		s0.008-0.54,0.008-0.838l-1.577,4.658h-0.741l-1.592-4.658v0.169c0,0.135,0.003,0.342,0.011,0.619
		c0.007,0.277,0.011,0.48,0.011,0.611v3.26h-0.714V97.818z"/>
	<path fill="#FFFFFF" d="M222.124,97.818h4.008v0.677h-3.279v1.677h3.031v0.639h-3.031v1.872h3.335v0.658h-4.064V97.818z"/>
	<path fill="#FFFFFF" d="M230.114,97.818h0.881l2.754,4.462v-4.462h0.714v5.523h-0.84l-2.795-4.457v4.457h-0.714V97.818z"/>
	<path fill="#FFFFFF" d="M242.616,97.818v0.658h-1.861v4.865H240v-4.865h-1.861v-0.658H242.616z"/>
</g>
</svg>
