<?xml version="1.0" encoding="utf-8"?>
<!-- Generator: Adobe Illustrator 16.0.0, SVG Export Plug-In . SVG Version: 6.00 Build 0)  -->
<!DOCTYPE svg PUBLIC "-//W3C//DTD SVG 1.1//EN" "http://www.w3.org/Graphics/SVG/1.1/DTD/svg11.dtd">
<svg version="1.1" id="Layer_1" xmlns="http://www.w3.org/2000/svg" xmlns:xlink="http://www.w3.org/1999/xlink" x="0px" y="0px"
	 width="346.5px" height="146px" viewBox="0 0 346.5 146" enable-background="new 0 0 346.5 146" xml:space="preserve">
<g>
	<polygon points="169.743,62.412 164.496,49.929 169.724,62.412 	"/>
	<path d="M76.744,76.649c-7.253,0-13.143-5.89-13.143-13.144c0-7.191,5.89-13.143,13.143-13.143c4.773,0,8.99,2.604,11.16,6.385
		c4.215-2.045,4.525-2.231,8.307-4.215c-3.781-6.758-10.973-11.47-19.467-11.47c-12.399,0-22.442,10.167-22.442,22.442
		c0,12.399,10.043,22.443,22.442,22.443c8.742,0,16.058-4.836,19.84-11.966c-3.969-1.798-4.092-2.046-8.309-4.216
		C86.044,73.983,81.704,76.649,76.744,76.649z"/>
	<path d="M130.436,69.086c0,6.633-2.231,9.609-9.176,9.609c-7.873,0-9.113-4.773-9.113-9.609V41.559h-9.732v27.527
		c0,12.089,6.881,17.793,18.846,17.793c11.842,0,18.91-5.828,18.91-17.793V41.559h-9.734V69.086z"/>
	<rect x="235.338" y="41.559" width="9.734" height="44.266"/>
	<g>
		<defs>
			<path id="SVGID_1_" d="M273.344,40.567c-12.648,0-22.877,10.229-22.877,22.938c0,12.647,10.229,22.877,22.877,22.877
				c12.585,0,22.938-10.229,22.938-22.877C296.281,50.797,285.929,40.567,273.344,40.567z M273.344,77.021
				c-7.378,0-13.516-6.138-13.516-13.516c0-7.377,6.138-13.577,13.516-13.577c7.377,0,13.391,6.2,13.391,13.577
				C286.734,70.884,280.721,77.021,273.344,77.021z"/>
		</defs>
		<use xlink:href="#SVGID_1_"  overflow="visible"/>
		<clipPath id="SVGID_2_">
			<use xlink:href="#SVGID_1_"  overflow="visible"/>
		</clipPath>
		<path clip-path="url(#SVGID_2_)" d="M273.344,49.929c-7.378,0-13.516,6.2-13.516,13.577c0,7.378,6.138,13.516,13.516,13.516
			c7.377,0,13.391-6.138,13.391-13.516C286.734,56.129,280.721,49.929,273.344,49.929z"/>
	</g>
	<path d="M218.436,69.457c7.378-1.611,10.539-7.688,10.539-13.701c0-7.191-4.277-14.197-15.437-14.197h-19.963v20.854h-0.008v7.547
		h0.008v15.928h9.796V69.959h0.039v-7.547h-0.039V49.123h7.562c4.65,0,8.494,0.867,8.494,6.633c0,5.07-3.106,6.432-7.109,6.656
		h-7.126v7.547h2.956l11.155,15.928h11.903l-12.399-16.43H218.436z"/>
	<polygon points="171.496,46.735 169.208,41.621 159.412,41.621 139.326,85.824 148.191,85.824 155.626,69.959 155.647,69.959 
		159.036,62.412 159.006,62.412 164.434,49.929 164.496,49.929 169.743,62.412 169.724,62.412 172.884,69.959 172.912,69.959 
		179.562,85.824 188.984,85.824 181.887,69.959 181.895,69.959 171.482,46.773 	"/>
	<polygon points="180.457,62.412 183.847,69.959 191.785,69.959 191.785,62.412 	"/>
	<polygon points="160.99,62.412 157.602,69.959 170.953,69.959 167.794,62.412 	"/>
</g>
<g>
	<path d="M110.19,98.221c0.382,0.368,0.594,0.787,0.636,1.255h-0.729c-0.081-0.355-0.243-0.638-0.485-0.846
		s-0.583-0.312-1.021-0.312c-0.533,0-0.965,0.191-1.294,0.574s-0.493,0.969-0.493,1.759c0,0.647,0.148,1.172,0.445,1.575
		s0.739,0.604,1.328,0.604c0.541,0,0.954-0.212,1.236-0.635c0.15-0.223,0.263-0.517,0.337-0.88h0.729
		c-0.064,0.582-0.277,1.069-0.64,1.462c-0.434,0.474-1.019,0.71-1.754,0.71c-0.634,0-1.167-0.194-1.599-0.583
		c-0.566-0.514-0.851-1.308-0.851-2.381c0-0.815,0.213-1.484,0.64-2.005c0.461-0.567,1.096-0.85,1.906-0.85
		C109.273,97.668,109.809,97.852,110.19,98.221z"/>
	<path d="M119.32,98.608c0.365,0.489,0.549,1.114,0.549,1.876c0,0.825-0.209,1.51-0.629,2.057c-0.49,0.642-1.191,0.962-2.102,0.962
		c-0.85,0-1.518-0.281-2.004-0.842c-0.434-0.541-0.65-1.226-0.65-2.053c0-0.747,0.186-1.386,0.557-1.917
		c0.477-0.682,1.181-1.022,2.113-1.022C118.129,97.668,118.852,97.981,119.32,98.608z M118.66,102.128
		c0.295-0.473,0.441-1.017,0.441-1.631c0-0.65-0.17-1.173-0.51-1.569c-0.339-0.396-0.803-0.594-1.393-0.594
		c-0.571,0-1.037,0.196-1.398,0.589s-0.541,0.971-0.541,1.736c0,0.612,0.154,1.128,0.464,1.548c0.31,0.42,0.812,0.63,1.506,0.63
		C117.889,102.837,118.365,102.601,118.66,102.128z"/>
	<path d="M128.235,98.608c0.366,0.489,0.549,1.114,0.549,1.876c0,0.825-0.209,1.51-0.628,2.057
		c-0.491,0.642-1.191,0.962-2.102,0.962c-0.85,0-1.518-0.281-2.004-0.842c-0.434-0.541-0.65-1.226-0.65-2.053
		c0-0.747,0.186-1.386,0.557-1.917c0.477-0.682,1.18-1.022,2.113-1.022C127.045,97.668,127.767,97.981,128.235,98.608z
		 M127.576,102.128c0.294-0.473,0.441-1.017,0.441-1.631c0-0.65-0.17-1.173-0.51-1.569c-0.34-0.396-0.804-0.594-1.393-0.594
		c-0.572,0-1.038,0.196-1.398,0.589c-0.361,0.393-0.542,0.971-0.542,1.736c0,0.612,0.155,1.128,0.464,1.548
		c0.311,0.42,0.812,0.63,1.506,0.63C126.805,102.837,127.281,102.601,127.576,102.128z"/>
	<path d="M132.602,97.818h0.748v4.865h2.771v0.658h-3.519V97.818z"/>
	<path d="M139.979,97.818h0.756v5.523h-0.756V97.818z"/>
	<path d="M144.875,97.818h0.881l2.754,4.462v-4.462h0.715v5.523h-0.84l-2.796-4.457v4.457h-0.714V97.818z"/>
	<path d="M157.038,97.976c0.541,0.288,0.872,0.793,0.993,1.515h-0.74c-0.089-0.403-0.271-0.697-0.549-0.881
		c-0.277-0.185-0.627-0.276-1.05-0.276c-0.501,0-0.923,0.191-1.265,0.575c-0.342,0.383-0.514,0.955-0.514,1.714
		c0,0.657,0.141,1.191,0.424,1.604c0.282,0.412,0.743,0.619,1.382,0.619c0.489,0,0.894-0.145,1.214-0.435s0.484-0.757,0.492-1.404
		h-1.729v-0.62h2.425v2.955h-0.48l-0.182-0.71c-0.248,0.278-0.469,0.471-0.662,0.579c-0.322,0.186-0.732,0.278-1.23,0.278
		c-0.645,0-1.197-0.211-1.661-0.635c-0.505-0.531-0.759-1.261-0.759-2.188c0-0.925,0.248-1.661,0.742-2.207
		c0.469-0.521,1.076-0.782,1.822-0.782C156.223,97.675,156.665,97.775,157.038,97.976z"/>
	<path d="M169.682,97.818h0.756v5.523h-0.756V97.818z"/>
	<path d="M174.578,97.818h0.881l2.754,4.462v-4.462h0.715v5.523h-0.84l-2.796-4.457v4.457h-0.714V97.818z"/>
	<path d="M183.502,97.818l1.588,4.703l1.567-4.703h0.839l-2.016,5.523h-0.793l-2.012-5.523H183.502z"/>
	<path d="M191.197,97.818h4.008v0.677h-3.278v1.677h3.03v0.639h-3.03v1.872h3.335v0.658h-4.064V97.818z"/>
	<path d="M199.677,101.559c0.017,0.313,0.089,0.568,0.214,0.763c0.238,0.366,0.66,0.549,1.264,0.549
		c0.271,0,0.518-0.041,0.739-0.121c0.43-0.155,0.645-0.434,0.645-0.834c0-0.301-0.091-0.515-0.273-0.643
		c-0.185-0.125-0.474-0.234-0.866-0.327l-0.725-0.169c-0.475-0.11-0.809-0.232-1.006-0.365c-0.34-0.231-0.51-0.575-0.51-1.034
		c0-0.496,0.167-0.903,0.501-1.222s0.808-0.478,1.419-0.478c0.564,0,1.043,0.14,1.437,0.419c0.394,0.28,0.591,0.727,0.591,1.34
		h-0.703c-0.035-0.295-0.113-0.522-0.23-0.68c-0.219-0.289-0.59-0.433-1.113-0.433c-0.424,0-0.728,0.093-0.912,0.278
		c-0.186,0.186-0.277,0.401-0.277,0.646c0,0.271,0.109,0.469,0.327,0.594c0.144,0.08,0.468,0.181,0.973,0.301l0.751,0.177
		c0.361,0.085,0.641,0.202,0.838,0.35c0.34,0.258,0.51,0.633,0.51,1.124c0,0.612-0.217,1.049-0.65,1.312
		c-0.435,0.263-0.938,0.395-1.514,0.395c-0.67,0-1.193-0.175-1.572-0.526c-0.379-0.348-0.564-0.821-0.558-1.417H199.677z"/>
	<path d="M211.266,97.818v0.658h-1.861v4.865h-0.756v-4.865h-1.861v-0.658H211.266z"/>
	<path d="M214.861,97.818h1.071l1.588,4.669l1.577-4.669h1.064v5.523h-0.715v-3.26c0-0.113,0.003-0.299,0.008-0.56
		s0.008-0.54,0.008-0.838l-1.577,4.658h-0.741l-1.592-4.658v0.169c0,0.135,0.004,0.342,0.012,0.619
		c0.007,0.277,0.011,0.48,0.011,0.611v3.26h-0.714V97.818z"/>
	<path d="M224.291,97.818h4.008v0.677h-3.279v1.677h3.031v0.639h-3.031v1.872h3.336v0.658h-4.064V97.818z"/>
	<path d="M232.281,97.818h0.881l2.755,4.462v-4.462h0.714v5.523h-0.84l-2.795-4.457v4.457h-0.715V97.818z"/>
	<path d="M244.783,97.818v0.658h-1.861v4.865h-0.756v-4.865h-1.861v-0.658H244.783z"/>
</g>
</svg>
