<?xml version="1.0" encoding="utf-8"?>
<!-- Generator: Adobe Illustrator 16.0.0, SVG Export Plug-In . SVG Version: 6.00 Build 0)  -->
<!DOCTYPE svg PUBLIC "-//W3C//DTD SVG 1.1//EN" "http://www.w3.org/Graphics/SVG/1.1/DTD/svg11.dtd">
<svg version="1.1" id="Layer_1" xmlns="http://www.w3.org/2000/svg" xmlns:xlink="http://www.w3.org/1999/xlink" x="0px" y="0px"
	 width="808px" height="285px" viewBox="0 0 808 285" enable-background="new 0 0 808 285" xml:space="preserve">
<path stroke="#000000" stroke-miterlimit="10" d="M146.222,265.295c-67.167,0-121.615-54.541-121.615-121.819
	c0-67.277,54.448-121.817,121.615-121.817c45.382,0,84.954,24.903,105.851,61.807c3.294-1.729,7.081-3.72,11.748-6.168
	C241.01,36.54,197.638,8.123,146.415,8.123c-74.78,0-135.351,61.317-135.351,135.351c0,74.781,60.57,135.356,135.351,135.356
	c52.721,0,96.846-29.166,119.65-72.166c-5.066-2.296-9.092-4.172-12.534-5.828C233.053,239.193,192.683,265.295,146.222,265.295z"/>
<rect x="27.588" y="114.73" fill="none" width="236.667" height="18"/>
<text transform="matrix(0.7 0 0 0.7 61.0757 124.7954)" font-family="'Helvetica'" font-size="14" letter-spacing="4.286">send</text>
<text transform="matrix(1 0 0 1 103.1992 124.7954)" font-family="'Helvetica'" font-size="14" letter-spacing="5"> </text>
<text transform="matrix(0.7 0 0 0.7 112.4087 124.7954)" font-family="'Helvetica'" font-size="14" letter-spacing="4.286">us</text>
<text transform="matrix(1 0 0 1 133.4707 124.7954)" font-family="'Helvetica'" font-size="14" letter-spacing="5"> </text>
<text transform="matrix(0.7 0 0 0.7 142.6802 124.7954)" font-family="'Helvetica'" font-size="14" letter-spacing="4.286">the</text>
<text transform="matrix(1 0 0 1 173.4521 124.7954)" font-family="'Helvetica'" font-size="14" letter-spacing="5"> </text>
<text transform="matrix(0.7 0 0 0.7 182.6616 124.7954)" font-family="'Helvetica'" font-size="14" letter-spacing="4.286">offer</text>
<rect x="13.588" y="148.73" fill="none" width="255.667" height="30.27"/>
<text transform="matrix(0.7 0 0 0.7 71.8257 158.7964)" font-family="'Helvetica'" font-size="14" letter-spacing="4.286">your</text>
<text transform="matrix(1 0 0 1 115.0352 158.7964)" font-family="'Helvetica'" font-size="14" letter-spacing="5"> </text>
<text transform="matrix(0.7 0 0 0.7 124.2446 158.7964)" font-family="'Helvetica'" font-size="14" letter-spacing="4.286">project</text>
<text transform="matrix(1 0 0 1 196.0488 158.7964)" font-family="'Helvetica'" font-size="14" letter-spacing="5">’</text>
<text transform="matrix(0.7 0 0 0.7 204.479 158.7964)" font-family="'Helvetica'" font-size="14" letter-spacing="4.286">s</text>
<text transform="matrix(1 0 0 1 90.3433 175.5967)" font-family="'Helvetica'" font-size="14" letter-spacing="5"> </text>
<text transform="matrix(0.7 0 0 0.7 99.5527 175.5967)" font-family="'Helvetica'" font-size="14" letter-spacing="4.286">documents</text>
<rect x="25.398" y="131.709" fill="none" width="236.667" height="18"/>
<text transform="matrix(0.7 0 0 0.7 60.2681 141.7744)" font-family="'Helvetica'" font-size="14" letter-spacing="4.286">you</text>
<text transform="matrix(1 0 0 1 92.6763 141.7744)" font-family="'Helvetica'" font-size="14" letter-spacing="5"> </text>
<text transform="matrix(0.7 0 0 0.7 101.8857 141.7744)" font-family="'Helvetica'" font-size="14" letter-spacing="4.286">received</text>
<text transform="matrix(1 0 0 1 181.7783 141.7744)" font-family="'Helvetica'" font-size="14" letter-spacing="5"> </text>
<text transform="matrix(0.7 0 0 0.7 190.9873 141.7744)" font-family="'Helvetica'" font-size="14" letter-spacing="4.286">with</text>
<g>
	<path stroke="#000000" stroke-miterlimit="10" d="M425.705,277.502c0.049-0.007,0.1-0.014,0.148-0.021
		c2.999-0.422,5.961-0.944,8.885-1.556c0.35-0.073,0.697-0.151,1.046-0.228c0.989-0.216,1.973-0.443,2.953-0.68
		c0.491-0.119,0.984-0.235,1.474-0.36c1.014-0.256,2.02-0.528,3.022-0.808c0.874-0.244,1.744-0.5,2.611-0.761
		c0.535-0.161,1.07-0.322,1.603-0.489c0.784-0.246,1.564-0.499,2.343-0.76c0.391-0.131,0.779-0.268,1.168-0.401
		c1.742-0.602,3.47-1.233,5.178-1.902c0.089-0.035,0.179-0.067,0.267-0.103c0.789-0.311,1.57-0.635,2.352-0.96
		c0.451-0.188,0.901-0.378,1.35-0.57c0.696-0.3,1.392-0.601,2.083-0.911c0.942-0.425,1.88-0.858,2.81-1.304
		c0.411-0.196,0.82-0.397,1.229-0.598c1.049-0.516,2.093-1.04,3.125-1.582c0.182-0.096,0.363-0.191,0.544-0.287
		c23.934-12.71,43.414-32.46,56.194-56.559c-4.804-2.177-8.664-3.974-11.987-5.565c-20.521,38.215-60.815,64.196-107.17,64.196
		c-0.114,0-0.229-0.006-0.343-0.006c-0.115,0-0.229,0.006-0.344,0.006c-46.355,0-86.648-25.981-107.17-64.196
		c-3.323,1.592-7.184,3.389-11.987,5.565c12.781,24.099,32.26,43.849,56.194,56.559c0.182,0.096,0.363,0.191,0.544,0.287
		c1.033,0.542,2.076,1.066,3.125,1.582c0.408,0.2,0.816,0.401,1.229,0.598c0.93,0.445,1.867,0.879,2.811,1.304
		c0.689,0.311,1.385,0.611,2.082,0.911c0.448,0.192,0.898,0.382,1.35,0.57c0.781,0.325,1.562,0.649,2.352,0.96
		c0.088,0.035,0.178,0.067,0.267,0.103c1.708,0.669,3.437,1.301,5.178,1.902c0.39,0.134,0.777,0.271,1.169,0.401
		c0.777,0.261,1.558,0.514,2.342,0.76c0.533,0.167,1.068,0.328,1.604,0.489c0.865,0.261,1.733,0.517,2.605,0.76
		c1.005,0.279,2.012,0.552,3.026,0.809c0.489,0.125,0.982,0.241,1.475,0.36c0.979,0.236,1.963,0.464,2.951,0.68
		c0.35,0.076,0.697,0.154,1.047,0.228c2.924,0.611,5.885,1.134,8.885,1.556c0.049,0.007,0.1,0.014,0.148,0.021
		c4.656,0.649,9.399,1.064,14.22,1.236c0.073,0.003,0.146,0.006,0.22,0.009c1.552,0.053,3.111,0.079,4.679,0.08
		c1.566-0.001,3.127-0.027,4.678-0.08c0.073-0.003,0.146-0.006,0.22-0.009C416.305,278.566,421.049,278.151,425.705,277.502z"/>
	<path stroke="#000000" stroke-miterlimit="10" d="M289.331,77.297c4.422,2.319,8.048,4.226,11.218,5.89
		c20.938-36.751,60.427-61.528,105.695-61.528c0.115,0,0.229,0.006,0.344,0.006c0.114,0,0.229-0.006,0.343-0.006
		c45.269,0,84.757,24.776,105.695,61.528c3.17-1.664,6.796-3.57,11.218-5.89c-22.788-40.717-66.1-69.115-117.256-69.171
		C355.431,8.182,312.119,36.58,289.331,77.297z"/>
</g>
<path stroke="#000000" stroke-miterlimit="10" d="M666.634,265.295c67.166,0,121.615-54.541,121.615-121.819
	c0-67.277-54.449-121.817-121.615-121.817c-45.383,0-84.953,24.903-105.852,61.807c-3.293-1.729-7.08-3.72-11.748-6.168
	C571.845,36.54,615.218,8.123,666.44,8.123c74.78,0,135.351,61.317,135.351,135.351c0,74.781-60.57,135.356-135.351,135.356
	c-52.721,0-96.846-29.166-119.65-72.166c5.066-2.296,9.092-4.172,12.535-5.828C579.802,239.193,620.173,265.295,666.634,265.295z"/>
<rect x="287.769" y="114.85" fill="none" width="236.667" height="18"/>
<text transform="matrix(0.7 0 0 0.7 302.3745 124.9146)" font-family="'Helvetica'" font-size="14" letter-spacing="4.286">we</text>
<text transform="matrix(1 0 0 1 325.6089 124.9146)" font-family="'Helvetica'" font-size="14" letter-spacing="5"> </text>
<text transform="matrix(0.7 0 0 0.7 334.8184 124.9146)" font-family="'Helvetica'" font-size="14" letter-spacing="4.286">perform</text>
<text transform="matrix(1 0 0 1 409.8867 124.9146)" font-family="'Helvetica'" font-size="14" letter-spacing="5"> </text>
<text transform="matrix(0.7 0 0 0.7 419.0957 124.9146)" font-family="'Helvetica'" font-size="14" letter-spacing="4.286">a</text>
<text transform="matrix(1 0 0 1 429.3564 124.9146)" font-family="'Helvetica'" font-size="14" letter-spacing="5"> </text>
<text transform="matrix(0.7 0 0 0.7 438.5664 124.9146)" font-family="'Helvetica'" font-size="14" letter-spacing="4.286">specific</text>
<rect x="287.769" y="130.85" fill="none" width="236.667" height="18"/>
<text transform="matrix(0.7 0 0 0.7 289.1763 140.9146)" font-family="'Helvetica'" font-size="14" letter-spacing="4.286">and</text>
<text transform="matrix(1 0 0 1 321.0391 140.9146)" font-family="'Helvetica'" font-size="14" letter-spacing="5"> </text>
<text transform="matrix(0.7 0 0 0.7 330.2485 140.9146)" font-family="'Helvetica'" font-size="14" letter-spacing="4.286">detailed</text>
<text transform="matrix(1 0 0 1 407.9639 140.9146)" font-family="'Helvetica'" font-size="14" letter-spacing="5"> </text>
<text transform="matrix(0.7 0 0 0.7 417.1738 140.9146)" font-family="'Helvetica'" font-size="14" letter-spacing="4.286">calculation</text>
<rect x="301.769" y="147.85" fill="none" width="217.667" height="18"/>
<text transform="matrix(0.7 0 0 0.7 347.6118 157.9155)" font-family="'Helvetica'" font-size="14" letter-spacing="4.286">room</text>
<text transform="matrix(1 0 0 1 392.9941 157.9155)" font-family="'Helvetica'" font-size="14" letter-spacing="5"> </text>
<text transform="matrix(0.7 0 0 0.7 402.2031 157.9155)" font-family="'Helvetica'" font-size="14" letter-spacing="4.286">by</text>
<text transform="matrix(1 0 0 1 422.7246 157.9155)" font-family="'Helvetica'" font-size="14" letter-spacing="5"> </text>
<text transform="matrix(0.7 0 0 0.7 431.9336 157.9155)" font-family="'Helvetica'" font-size="14" letter-spacing="4.286">room</text>
<rect x="546.545" y="114.568" fill="none" width="236.667" height="18"/>
<text transform="matrix(0.7 0 0 0.7 593.8828 124.6333)" font-family="'Helvetica'" font-size="14" letter-spacing="4.286">it</text>
<text transform="matrix(1 0 0 1 610.0391 124.6333)" font-family="'Helvetica'" font-size="14" letter-spacing="5">’</text>
<text transform="matrix(0.7 0 0 0.7 618.4697 124.6333)" font-family="'Helvetica'" font-size="14" letter-spacing="4.286">s</text>
<text transform="matrix(1 0 0 1 628.7305 124.6333)" font-family="'Helvetica'" font-size="14" letter-spacing="5"> </text>
<text transform="matrix(0.7 0 0 0.7 637.9395 124.6333)" font-family="'Helvetica'" font-size="14" letter-spacing="4.286">oversized</text>
<text transform="matrix(1 0 0 1 728.0879 124.6333)" font-family="'Helvetica'" font-size="14" letter-spacing="5">?</text>
<rect x="553.367" y="130.568" fill="none" width="216.633" height="41.281"/>
<text transform="matrix(0.7 0 0 0.7 594.4121 140.6343)" font-family="'Helvetica'" font-size="14" letter-spacing="4.286">we</text>
<text transform="matrix(1 0 0 1 617.6465 140.6343)" font-family="'Helvetica'" font-size="14" letter-spacing="5"> </text>
<text transform="matrix(0.7 0 0 0.7 626.8555 140.6343)" font-family="'Helvetica'" font-size="14" letter-spacing="4.286">deliver</text>
<text transform="matrix(1 0 0 1 694.8604 140.6343)" font-family="'Helvetica'" font-size="14" letter-spacing="5"> </text>
<text transform="matrix(0.7 0 0 0.7 704.0703 140.6343)" font-family="'Helvetica'" font-size="14" letter-spacing="4.286">all</text>
<text transform="matrix(1 0 0 1 574.0811 157.4346)" font-family="'Helvetica'" font-size="14" letter-spacing="5"> </text>
<text transform="matrix(0.7 0 0 0.7 583.291 157.4346)" font-family="'Helvetica'" font-size="14" letter-spacing="4.286">calculations</text>
<text transform="matrix(1 0 0 1 703.1289 157.4346)" font-family="'Helvetica'" font-size="14" letter-spacing="5"> </text>
<text transform="matrix(1 0 0 1 712.3379 157.4346)" font-family="'Helvetica'" font-size="10" letter-spacing="3">WITH</text>
<rect x="545.545" y="162.568" fill="none" width="236.667" height="18"/>
<text transform="matrix(0.7 0 0 0.7 583.6377 172.6328)" font-family="'Helvetica'" font-size="14" letter-spacing="4.286">an</text>
<text transform="matrix(1 0 0 1 604.6992 172.6328)" font-family="'Helvetica'" font-size="14" letter-spacing="5"> </text>
<text transform="matrix(0.7 0 0 0.7 613.9092 172.6328)" font-family="'Helvetica'" font-size="14" letter-spacing="4.286">updated</text>
<text transform="matrix(1 0 0 1 686.8047 172.6328)" font-family="'Helvetica'" font-size="14" letter-spacing="5"> </text>
<text transform="matrix(0.7 0 0 0.7 696.0137 172.6328)" font-family="'Helvetica'" font-size="14" letter-spacing="4.286">offer</text>
<rect x="138.574" y="33.568" fill="none" width="33" height="37"/>
<text transform="matrix(1 0 0 1 138.5742 53.7002)" font-family="'Helvetica'" font-size="28">1</text>
<rect x="400.074" y="33.568" fill="none" width="33" height="37"/>
<text transform="matrix(1 0 0 1 400.0742 53.7002)" font-family="'Helvetica'" font-size="28">2</text>
<rect x="660.491" y="33.568" fill="none" width="33" height="37"/>
<text transform="matrix(1 0 0 1 660.4902 53.7002)" font-family="'Helvetica'" font-size="28">3</text>
</svg>
